<svg id="Layer_1" data-name="Layer 1" xmlns="http://www.w3.org/2000/svg" viewBox="0 0 139.07 146.33"><defs><style>.cls-1{fill:#fff;}</style></defs><path class="cls-1" d="M503.73,613.17l-1.37-1.8a122.81,122.81,0,0,1-13.43-23.73,236.12,236.12,0,0,1-12.39-36.12,190.19,190.19,0,0,1-4.79-22.91,131.24,131.24,0,0,1-1.07-25.68,64.14,64.14,0,0,1,3-16.65A37,37,0,0,1,478.72,476a20.06,20.06,0,0,1,12.82-8.33,29.71,29.71,0,0,1,11.58.33,76.71,76.71,0,0,1,18.48,6.65c7.79,3.81,15.49,7.81,23.22,11.75,4,2,8,4.23,12.34,5.45,2.11.59,4.27,1.06,6.44,1.44a8.23,8.23,0,0,0,2.84-.1c1.78-.34,2.47-1.49,2.11-3.27a6.6,6.6,0,0,0-2.35-4A21,21,0,0,0,562,483.2c-2.31-1-4.75-1.78-7.14-2.63a4.85,4.85,0,0,1-1.33-.59c.35,0,.7-.08,1.05-.08a34.27,34.27,0,0,1,10.78,1.5,14.61,14.61,0,0,1,5.27,2.85,9.36,9.36,0,0,1,3.29,6.05,6.49,6.49,0,0,1-2.56,6.21,11.19,11.19,0,0,1-5.71,2.15,31.28,31.28,0,0,1-9.16-.46c-7.86-1.29-15.24-4.11-22.56-7.15-2.91-1.21-5.86-2.38-8.85-3.38-9.79-3.28-18.21-.73-25.48,6.27a35.06,35.06,0,0,0-8.38,13.43,63.68,63.68,0,0,0-3.48,16c-1.07,10.91-.25,21.74,1.39,32.53a189.87,189.87,0,0,0,10.64,39.61c.08.23.17.45.26.67a4.2,4.2,0,0,0,.29.37c.13-.63.27-1.14.34-1.66A174.94,174.94,0,0,1,507,566a101,101,0,0,1,6.66-16.66,49.36,49.36,0,0,1,9.35-13,28,28,0,0,1,13.82-7.54c6.08-1.29,11.31.2,15.61,4.72a38.74,38.74,0,0,1,7.32,11.12,64.19,64.19,0,0,1,5.29,16.66c.58,3.93,1,7.88,1.57,11.82a8.19,8.19,0,0,1,.08,2.43c-.21-.52-.44-1-.65-1.54a76.6,76.6,0,0,0-11.39-20.21,38.66,38.66,0,0,0-7.61-7.4,18,18,0,0,0-10.83-3.7,12.62,12.62,0,0,0-6.27,1.88,27.65,27.65,0,0,0-7.5,6.63,60.92,60.92,0,0,0-8.82,15.43,131,131,0,0,0-7.75,27.47,132.35,132.35,0,0,0-2,18.42A6.38,6.38,0,0,1,503.73,613.17Z" transform="translate(-470.47 -466.83)"/><path class="cls-1" d="M544.79,475.62c3.59-1.19,7.16-2.42,10.76-3.56a130.84,130.84,0,0,1,17-4.34c5.72-1,11.48-1.36,17.16,0,9.54,2.25,15.74,8.18,18.37,17.67a46.82,46.82,0,0,1,1.34,15.69c-.67,10.65-3.33,20.89-6.45,31a297.23,297.23,0,0,1-14.51,38.73,276.34,276.34,0,0,1-24.16,41.28c-.16.23-.35.44-.66.82a8.93,8.93,0,0,1-.2-1,128.13,128.13,0,0,0-4-25.53,88.68,88.68,0,0,0-10-24.21,46,46,0,0,0-6.52-8.39,24.57,24.57,0,0,0-8.62-5.85,4.23,4.23,0,0,1-.6-.36,21.09,21.09,0,0,1,7.1,1.29,22.05,22.05,0,0,1,6.39,3.82,40.66,40.66,0,0,1,7.66,8.74,91.49,91.49,0,0,1,9.8,20c1.23,3.38,2.27,6.82,3.39,10.23.12.35.25.7.43,1.19.24-.4.4-.64.52-.89a304.81,304.81,0,0,0,19.09-46.8,146,146,0,0,0,5.26-23.39,70.9,70.9,0,0,0,.11-20.21c-.93-5.91-2.89-11.42-6.76-16.11a28.49,28.49,0,0,0-15.74-9.46,54.64,54.64,0,0,0-25.24-.17l-.81.16Z" transform="translate(-470.47 -466.83)"/></svg>