<svg id="Layer_1" data-name="Layer 1" xmlns="http://www.w3.org/2000/svg" viewBox="0 0 750.47 293.07"><defs><style>.cls-1{fill:#fff;}</style></defs><path class="cls-1" d="M546.82,686.54a3.94,3.94,0,0,1-.11-1.22q2.26-12,4.59-24c.69-3.57,1.4-7.15,2.05-10.73a1.74,1.74,0,0,1,.93-1.32,56.68,56.68,0,0,0,14.83-12.4c3.3-3.8,6.44-7.74,9.67-11.6,1.7-2,3.45-4,5.18-6,.31-.35.66-.65,1.1-1.08.24.85.39,1.54.63,2.21,2.26,6.32,9.86,11.43,16.55,11.1a17,17,0,0,0,8.53-2.74c7.72-5,12.13-12,12.51-21.27a19.25,19.25,0,0,0-.86-6.53c-2.1-6.82-7.71-10.72-14.93-10.38a25.14,25.14,0,0,0-15.33,6.14,72.88,72.88,0,0,0-8.66,8.82c-4.77,5.64-9.44,11.36-14.2,17-2.41,2.85-4.89,5.66-7.41,8.43-9.63,10.57-21.68,16.78-35.67,19.16a41.17,41.17,0,0,1-29.78-5.93c-6.56-4.15-10.84-9.93-12.27-17.64a36.11,36.11,0,0,1,.73-15.68,50.52,50.52,0,0,1,14.43-24.6,44.81,44.81,0,0,1,23-11.35,55.3,55.3,0,0,1,26.46,1.38,21.58,21.58,0,0,1,3.47,1.37,47.82,47.82,0,0,1,9,5.87c.62.51,1.17,1.09,1.85,1.72a138.45,138.45,0,0,0-16.53,18.41c-.26-.55-.43-1-.63-1.36-2.77-5.62-7-9.4-13.3-10.61a14.41,14.41,0,0,0-9.39,1.34c-8.08,4-13,10.47-14.52,19.46a20.47,20.47,0,0,0,.88,10.35A13.88,13.88,0,0,0,523,632.45a24.53,24.53,0,0,0,16.29-5.87,73.65,73.65,0,0,0,9.46-9.64c4.76-5.64,9.43-11.36,14.2-17,2.31-2.75,4.7-5.44,7.13-8.09,8.46-9.3,19-15,31.11-18.09a43.87,43.87,0,0,1,23.73.31,38.39,38.39,0,0,1,13.78,7.23,25.94,25.94,0,0,1,9.16,16.6c3.64,23.57-12.19,45.36-35.46,50.29a55.41,55.41,0,0,1-13.6.93,63.62,63.62,0,0,1-16.44-2.56l-1.37-.43a1.82,1.82,0,0,0-.29.06l-8,40.36Z" transform="translate(-164.77 -393.46)"/><path class="cls-1" d="M164.77,606.84c.24-1.31.54-2.62.74-3.93a67.21,67.21,0,0,1,10.79-27.47,66,66,0,0,1,9.18-11,51.14,51.14,0,0,1,26.9-13.69,72.42,72.42,0,0,1,18.76-1.11,44.48,44.48,0,0,1,15.43,3.73c9.52,4.39,15.38,11.78,18,21.88a2,2,0,0,1-.56,1.93,119,119,0,0,1-11.54,12.43c-4.64,4.39-9.51,8.51-14.53,12.45-.3.23-.62.44-1.07.75.42-2.06.87-3.95,1.2-5.86.91-5.35,1-10.69-.71-15.92a26.89,26.89,0,0,0-1.95-4.47,14.56,14.56,0,0,0-13.14-7.91c-9.63-.24-17.09,3.7-22,12.11a6.79,6.79,0,0,1-3.77,3.35,38.37,38.37,0,0,0-9.33,5.36,160.82,160.82,0,0,0-21.06,18.48c-.38.38-.61,1-1.33.94Z" transform="translate(-164.77 -393.46)"/><path class="cls-1" d="M430.89,581.87l1-.6a50.18,50.18,0,0,1,19.78-7.4A29.85,29.85,0,0,1,466.43,575c7.29,2.66,11.57,8,13,15.53a35.65,35.65,0,0,1-.4,13.14c-2,11-3.94,22-5.91,33L471,648.58c-8.36.06-16.72,0-25.21,0,.44-2.48.84-4.78,1.25-7.08,1.88-10.41,3.79-20.83,5.64-31.25a68.15,68.15,0,0,0,.86-6.83c.34-4.56-2.79-8.25-8-9-7.68-1.11-15.85,4.46-18.27,10.41a43.27,43.27,0,0,0-2.48,8.83q-3.07,17-6.13,33.94a7.63,7.63,0,0,1-.26.9h-25Q404,595.07,414.6,541.74h23.57C435.75,555.08,433.34,568.33,430.89,581.87Z" transform="translate(-164.77 -393.46)"/><path class="cls-1" d="M516.15,539.8l-1.38-1.8a122.81,122.81,0,0,1-13.43-23.73A236.83,236.83,0,0,1,489,478.15a190.19,190.19,0,0,1-4.79-22.91,131.24,131.24,0,0,1-1.06-25.68,63.72,63.72,0,0,1,3-16.65,37.2,37.2,0,0,1,5.07-10.26A20.12,20.12,0,0,1,504,394.32a29.66,29.66,0,0,1,11.57.33A76.78,76.78,0,0,1,534,401.3c7.78,3.81,15.48,7.81,23.21,11.75,4,2,8,4.23,12.34,5.45,2.12.59,4.28,1.06,6.44,1.44a8.29,8.29,0,0,0,2.85-.1c1.78-.34,2.47-1.49,2.1-3.27a6.63,6.63,0,0,0-2.34-4,21.09,21.09,0,0,0-4.2-2.72c-2.31-1-4.75-1.78-7.14-2.63a4.79,4.79,0,0,1-1.32-.59c.35,0,.69-.08,1-.08a34.23,34.23,0,0,1,10.78,1.5,14.65,14.65,0,0,1,5.28,2.85,9.36,9.36,0,0,1,3.29,6.05,6.51,6.51,0,0,1-2.56,6.21,11.25,11.25,0,0,1-5.71,2.15,31,31,0,0,1-9.17-.46c-7.86-1.29-15.24-4.11-22.55-7.15-2.92-1.21-5.86-2.38-8.85-3.38-9.8-3.28-18.22-.73-25.48,6.27A35.06,35.06,0,0,0,503.65,434a63.68,63.68,0,0,0-3.48,16c-1.08,10.91-.26,21.74,1.39,32.53a190.46,190.46,0,0,0,10.63,39.61c.09.23.17.45.27.67a2.79,2.79,0,0,0,.29.37c.13-.63.26-1.14.33-1.66a175,175,0,0,1,6.37-28.88,101.89,101.89,0,0,1,6.65-16.66,49.17,49.17,0,0,1,9.36-13,28,28,0,0,1,13.82-7.54c6.08-1.29,11.31.2,15.6,4.72a38.77,38.77,0,0,1,7.33,11.12,65,65,0,0,1,5.29,16.66c.58,3.93,1,7.88,1.57,11.82a8.92,8.92,0,0,1,.08,2.43c-.22-.52-.45-1-.65-1.54a76.36,76.36,0,0,0-11.4-20.21,38.39,38.39,0,0,0-7.61-7.4,17.94,17.94,0,0,0-10.83-3.7,12.58,12.58,0,0,0-6.26,1.88,27.84,27.84,0,0,0-7.51,6.63,61.19,61.19,0,0,0-8.81,15.43,130.54,130.54,0,0,0-7.75,27.47,132.37,132.37,0,0,0-2,18.42A5.36,5.36,0,0,1,516.15,539.8Z" transform="translate(-164.77 -393.46)"/><path class="cls-1" d="M728.28,616.88a19.84,19.84,0,0,0,.32,6.74,12.42,12.42,0,0,0,6.24,7.72,19.71,19.71,0,0,0,7.67,2.25,49.61,49.61,0,0,0,20.41-2.38c4.11-1.3,8.29-2.37,12.44-3.51.87-.23,1.78-.29,2.81-.45-.12.35-.18.57-.27.77-2.33,4.94-4.69,9.86-7,14.82a2.7,2.7,0,0,1-1.66,1.61,79.07,79.07,0,0,1-17.7,4.84c-8.6,1.08-17.13,1-25.49-1.58a31.61,31.61,0,0,1-15.29-10,26.49,26.49,0,0,1-5.95-14.39c-.87-8.12,1-15.74,4.38-23,6.22-13.29,16.37-22,30.74-25.49a46.85,46.85,0,0,1,27.33,1.28,28.41,28.41,0,0,1,6.52,3.32c7.53,5.22,10.56,12.51,9.8,21.49-.45,5.38-2.27,10.45-3.72,15.75l-4.11.52c-4.7.65-9.4,1.32-14.1,1.94a89.42,89.42,0,0,1-18.49,1,53.22,53.22,0,0,1-13.34-2.7Zm2.15-12.52c.32.09.5.16.68.19,3,.5,5.94,1.06,8.92,1.49a67.14,67.14,0,0,0,20.89,0c2.83-.47,2.83-.44,3.47-3.25,1.21-5.37-.86-9.56-5.87-11.86-.39-.18-.79-.35-1.19-.49a21.84,21.84,0,0,0-13.7-.3c-4.53,1.37-7.89,4.41-10.68,8.12a13.08,13.08,0,0,0-2.27,4.61C730.56,603.31,730.52,603.82,730.43,604.36Z" transform="translate(-164.77 -393.46)"/><path class="cls-1" d="M387.32,629.29c-1.26,6.5-2.49,12.83-3.73,19.17-.38,0-.66.08-.95.08-8.44.09-16.88.21-25.33.25A49.53,49.53,0,0,1,347,648a18.4,18.4,0,0,1-1.93-.54,6.37,6.37,0,0,1-4.69-6.2,31.8,31.8,0,0,1,.74-8.43c2.18-10.55,4.41-21.1,6.62-31.64l1.52-7.25H336.17a8.85,8.85,0,0,1,.25-3.57,109.53,109.53,0,0,1,3.31-13.83,1.15,1.15,0,0,1,1.32-1c3.31,0,6.62,0,9.93,0h1.6c1.37-6.19,2.71-12.21,4.07-18.32h23.17c-1.21,6.06-2.41,12-3.64,18.2l22.08.35c-1.29,6-2.55,12-3.83,18H373.32A11.23,11.23,0,0,0,373,595q-3.11,14.91-6.2,29.82a3.3,3.3,0,0,0,2,4.13,14,14,0,0,0,5.58,1.23,49.75,49.75,0,0,0,12.18-.78C386.68,629.32,386.87,629.32,387.32,629.29Z" transform="translate(-164.77 -393.46)"/><path class="cls-1" d="M780.36,645.15a54.47,54.47,0,0,1,7.7-16.23c.84.28,1.6.52,2.36.79a62.92,62.92,0,0,0,14.36,3.45,30.27,30.27,0,0,0,10.44-.44,11.4,11.4,0,0,0,4.88-2.36,5.25,5.25,0,0,0,2-4,4.05,4.05,0,0,0-2.44-4.06,25.68,25.68,0,0,0-4.74-1.6,96.66,96.66,0,0,1-11.53-3.57,23.76,23.76,0,0,1-5.86-3c-5.26-3.8-7.3-9-6.4-15.32a25.51,25.51,0,0,1,11.43-18.18,39.88,39.88,0,0,1,17.33-6.54,60.75,60.75,0,0,1,28.74,3.27c.26.09.51.22.94.42l-7.09,14.46c-1.79-.47-3.44-.94-5.1-1.35A39.54,39.54,0,0,0,824,589.56a11.79,11.79,0,0,0-6,2.09,5.91,5.91,0,0,0-2.6,4.14,3.56,3.56,0,0,0,1.95,4,23.29,23.29,0,0,0,4.14,1.59c2.44.68,4.93,1.18,7.39,1.8a47,47,0,0,1,9.24,3.13,15.78,15.78,0,0,1,9.29,14c.4,6.31-1.8,11.85-5.79,16.71-4.84,5.9-11.18,9.36-18.46,11.26a54.66,54.66,0,0,1-11.8,1.65A87.82,87.82,0,0,1,782,645.73C781.48,645.57,781,645.38,780.36,645.15Z" transform="translate(-164.77 -393.46)"/><path class="cls-1" d="M847.81,645a30.31,30.31,0,0,0,8.55-14.92l1.22.5a38.54,38.54,0,0,0,22.54,2.4,12.88,12.88,0,0,0,5.63-2.42,5.31,5.31,0,0,0,2.29-4.42,4.06,4.06,0,0,0-2.35-3.83,19.36,19.36,0,0,0-3.91-1.39,104.39,104.39,0,0,1-12.22-3.74,25.27,25.27,0,0,1-6.12-3.13c-5.2-3.77-7.25-8.92-6.38-15.19a25.47,25.47,0,0,1,11.47-18.3,40.45,40.45,0,0,1,18.05-6.6,61.14,61.14,0,0,1,27.74,3.26c.32.1.62.24.91.36-.08,1.06-5.33,12.11-6.92,14.58-.92-.24-1.89-.49-2.84-.76a49.85,49.85,0,0,0-11.74-2,17.84,17.84,0,0,0-6.82.75,12.77,12.77,0,0,0-3.5,1.9,6.48,6.48,0,0,0-1.8,2.53,3.87,3.87,0,0,0,2.06,5.39,30.65,30.65,0,0,0,7.26,2.22,59.77,59.77,0,0,1,13,4c6,2.86,9,7.75,9.37,14.24.33,6.21-1.84,11.65-5.75,16.44-4.86,6-11.24,9.43-18.57,11.33a56.68,56.68,0,0,1-11.8,1.65,77.57,77.57,0,0,1-28.26-4.3c-.23-.08-.46-.16-.68-.26A3.15,3.15,0,0,1,847.81,645Z" transform="translate(-164.77 -393.46)"/><path class="cls-1" d="M265.79,588.37c-.11,1.67-.14,3-.29,4.3-1.12,10.13-3.51,19.91-8.21,29-7.5,14.54-19.39,23.55-35.23,27.46a61.32,61.32,0,0,1-19.69,1.67c-8.63-.7-16.66-3.15-23.53-8.63a36.87,36.87,0,0,1-12.52-18.87,2,2,0,0,1,.5-2.07,101.94,101.94,0,0,1,15.48-15c3.24-2.55,6.59-5,9.9-7.42.37-.28.78-.51,1.35-.87-.36,2.23-.73,4.24-1,6.27a36.34,36.34,0,0,0,.75,15.53c2,6.51,6.17,10.67,13,11.73a23,23,0,0,0,18.67-5.23,26.11,26.11,0,0,0,5.56-6.55,4.27,4.27,0,0,1,1.36-1.41,116.4,116.4,0,0,0,24.74-20.25c2.69-2.8,5.32-5.66,8-8.49C264.88,589.24,265.22,588.94,265.79,588.37Z" transform="translate(-164.77 -393.46)"/><path class="cls-1" d="M703.67,595.77a37.29,37.29,0,0,0-9.45.11,16.65,16.65,0,0,0-12.45,8.56,41,41,0,0,0-4.22,11.87c-2,9.57-3.86,19.16-5.78,28.74-.21,1.08-.44,2.15-.67,3.28h-25c.26-1.38.48-2.64.73-3.9q5.81-29.1,11.62-58.19a35.89,35.89,0,0,0,.7-9c0-.52,0-1,0-1.64h23.38c-.56,3.93-1.58,7.75-2.26,11.89a11.21,11.21,0,0,0,1-.73c2-1.85,4-3.74,6-5.56a29.57,29.57,0,0,1,11.3-6.66,24.17,24.17,0,0,1,18.79,2.08,2.26,2.26,0,0,1,.39.33C712.14,582.54,706.84,588.32,703.67,595.77Z" transform="translate(-164.77 -393.46)"/><path class="cls-1" d="M276.23,575.82h24.39c-.86,4.26-1.71,8.46-2.64,13,.55-.5.86-.77,1.14-1.05,2.11-2.16,4.16-4.39,6.34-6.48A22.25,22.25,0,0,1,320.07,575c3.91-.2,7.85,0,12.06,0a79.21,79.21,0,0,0-4.13,18.4c-.58,0-1,0-1.51,0a48.06,48.06,0,0,0-11.18.44,22.11,22.11,0,0,0-16.6,12.85,58.49,58.49,0,0,0-3.81,12.33q-3.15,14.24-6.31,28.47c-.07.32-.18.63-.28,1h-25c.48-2.37.94-4.65,1.42-6.93l9.12-43.15c.68-3.23,1.41-6.46,2-9.7A43.27,43.27,0,0,0,276.23,575.82Z" transform="translate(-164.77 -393.46)"/><path class="cls-1" d="M557.21,402.25c3.58-1.19,7.15-2.42,10.76-3.56a130.43,130.43,0,0,1,17-4.34c5.71-1,11.48-1.36,17.15,0,9.55,2.26,15.75,8.18,18.38,17.67a47.34,47.34,0,0,1,1.34,15.69c-.68,10.65-3.33,20.89-6.45,31a298.68,298.68,0,0,1-14.51,38.73,276.39,276.39,0,0,1-24.17,41.28c-.16.23-.35.44-.65.82a9.32,9.32,0,0,1-.21-1,128.11,128.11,0,0,0-4-25.53,89.31,89.31,0,0,0-10-24.21,46.49,46.49,0,0,0-6.52-8.39,24.61,24.61,0,0,0-8.63-5.85,4.42,4.42,0,0,1-.59-.36,21.19,21.19,0,0,1,7.1,1.29,22.19,22.19,0,0,1,6.39,3.82,40.89,40.89,0,0,1,7.65,8.74A91,91,0,0,1,577,508c1.23,3.38,2.27,6.82,3.4,10.23.11.35.25.7.42,1.19.24-.4.4-.64.53-.89a304.77,304.77,0,0,0,19.08-46.8,145,145,0,0,0,5.26-23.38,70.19,70.19,0,0,0,.11-20.21c-.93-5.92-2.88-11.43-6.75-16.12a28.51,28.51,0,0,0-15.75-9.46,54.59,54.59,0,0,0-25.23-.17l-.82.16Z" transform="translate(-164.77 -393.46)"/><path class="cls-1" d="M693,665.43c-1.51,6.76-3,13.47-4.52,20.25h-4l5.8-26.18h4.56c3.72,6.74,7.46,13.51,11.35,20.58,1.57-7,3.07-13.75,4.59-20.57h4c-1.94,8.75-3.86,17.42-5.82,26.25-1.48,0-2.9,0-4.32,0-.22,0-.49-.26-.65-.46a8.1,8.1,0,0,1-.57-1L693.27,665.6A1.72,1.72,0,0,0,693,665.43Z" transform="translate(-164.77 -393.46)"/><path class="cls-1" d="M668.8,658.77a42.51,42.51,0,0,1,4.24.66c4.3,1.09,6.86,4.1,7,8.53.27,8.19-4.41,16.32-14.32,18a17.55,17.55,0,0,1-8-.3,8.74,8.74,0,0,1-6.72-8.47c-.24-6.2,2.56-13.49,9.92-16.73A21.24,21.24,0,0,1,668.8,658.77Zm6.78,10.68c0-.57,0-1.1-.09-1.63a5.9,5.9,0,0,0-4.5-5.36c-4.7-1.07-8.91-.08-12.08,3.7a14.45,14.45,0,0,0-3.24,11.55,5.62,5.62,0,0,0,4.35,5,11.71,11.71,0,0,0,12.75-4.4A15.93,15.93,0,0,0,675.58,669.45Z" transform="translate(-164.77 -393.46)"/><path class="cls-1" d="M804.15,676.26c.24-9.89,7.07-17.12,17.29-17.34a20.36,20.36,0,0,1,3.57.26c5.08.81,8.11,4.07,8.16,9.17.05,5.4-1.66,10.24-5.93,13.78a17.6,17.6,0,0,1-16.6,3.49C806.36,684.44,804.12,681.06,804.15,676.26Zm12.12,6.92a11.51,11.51,0,0,0,9.28-4.45,15.13,15.13,0,0,0,3.08-10.64,5.9,5.9,0,0,0-4.54-5.64c-4.35-1-8.36-.22-11.5,3.1a14.24,14.24,0,0,0-3.76,12.32,5.64,5.64,0,0,0,4.61,4.91A26.4,26.4,0,0,0,816.27,683.18Z" transform="translate(-164.77 -393.46)"/><path class="cls-1" d="M603,658.86a32.41,32.41,0,0,1,4,.72c4.05,1.17,6.44,4.32,6.45,8.81,0,5.51-1.75,10.42-6.19,14a17.62,17.62,0,0,1-16.38,3.27,8.48,8.48,0,0,1-6.41-8.24c-.19-5.48,1.45-10.3,5.58-14.07C593.52,660.17,597.68,659,603,658.86Zm-7.35,24.25c4.6,0,7.83-1.32,10.19-4.38A15.09,15.09,0,0,0,609,668.09a6,6,0,0,0-5.25-5.79,11.66,11.66,0,0,0-12.7,5.75,16.89,16.89,0,0,0-2,6.54C588.44,679.81,591.05,683.18,595.68,683.11Z" transform="translate(-164.77 -393.46)"/><path class="cls-1" d="M775.2,668.94c-.21,8.77-5.72,15.73-14.59,17.1a18.52,18.52,0,0,1-6.43,0c-5-1-8-4.19-8-9.32,0-5.46,1.78-10.3,6.16-13.82a17.72,17.72,0,0,1,16.39-3.28C773,660.72,775.23,664.14,775.2,668.94Zm-17,14.22a11.29,11.29,0,0,0,8.25-3.19,14.42,14.42,0,0,0,4.06-12.76,5.53,5.53,0,0,0-4.28-4.73A11.74,11.74,0,0,0,754,666.19a15.06,15.06,0,0,0-3.29,10.87,6,6,0,0,0,5.21,5.81C756.67,683,757.44,683.07,758.19,683.16Z" transform="translate(-164.77 -393.46)"/><path class="cls-1" d="M623.7,659.39c4.69.16,9.19-.31,13.68.37a13.3,13.3,0,0,1,4.85,1.69,7.16,7.16,0,0,1,3.64,6c.38,6.9-2.64,15.17-13.25,17.59a31.29,31.29,0,0,1-5.55.67c-2.73.12-5.47,0-8.2,0-.28,0-.55-.06-1-.11C619.82,676.9,621.74,668.22,623.7,659.39Zm-.86,23a29.62,29.62,0,0,0,10.36-.65,10.38,10.38,0,0,0,6.9-6.2,17.36,17.36,0,0,0,1.33-5.85c.18-3.44-1.4-5.65-4.73-6.59-3.1-.87-6.26-.42-9.46-.54C625.75,669.29,624.3,675.85,622.84,682.41Z" transform="translate(-164.77 -393.46)"/><path class="cls-1" d="M864,671.18l-.74,3.43c-.61,2.76-1.23,5.51-1.81,8.28a1.89,1.89,0,0,1-1.38,1.59,29,29,0,0,1-9.42,1.83,23.94,23.94,0,0,1-5.27-.55c-4.38-1-6.87-3.64-7-8.1-.25-6.86,2.08-12.74,8.26-16.31,5.46-3.16,11.31-3.27,17.18-.94a8.92,8.92,0,0,1,1.15.59,2.65,2.65,0,0,1,.44.38L863,664.12a14.59,14.59,0,0,0-6-1.92,16,16,0,0,0-5.84.58,8.93,8.93,0,0,0-3.84,2.18A15,15,0,0,0,843,677.84c.32,2.79,2,4.32,4.73,4.9a19.16,19.16,0,0,0,9-.57,1.23,1.23,0,0,0,.74-.72c.55-2.28,1-4.57,1.59-7.07h-7.64l1.17-3.2H864Z" transform="translate(-164.77 -393.46)"/><path class="cls-1" d="M907.38,685.69h-4.49c-.49-2.42-1-4.88-1.49-7.37-.36,0-.64-.08-.92-.08-3.59,0-7.19,0-10.79,0a1.64,1.64,0,0,0-1.59.94c-1.17,1.92-2.42,3.8-3.59,5.72a1.59,1.59,0,0,1-1.61.93c-1-.07-2,0-3.18,0a12.58,12.58,0,0,1,.6-1.15q7.88-12.12,15.75-24.22a1.84,1.84,0,0,1,1.84-1c1.29.07,2.58,0,4,0C903.74,668.18,905.55,676.87,907.38,685.69Zm-8.83-22.29-.33-.09L890.74,675h10C900,671.07,899.28,667.24,898.55,663.4Z" transform="translate(-164.77 -393.46)"/><path class="cls-1" d="M721.31,659.5h24.85c-.23,1.08-.44,2-.66,3.12H735.17c-1.73,7.75-3.43,15.39-5.14,23.07H725.8c1.7-7.68,3.37-15.23,5.1-23-1.78-.06-3.42,0-5.07,0h-5.12A9,9,0,0,1,721.31,659.5Z" transform="translate(-164.77 -393.46)"/><path class="cls-1" d="M798.48,685.68H779.57c2-8.81,3.88-17.48,5.81-26.18h4.24c-1.7,7.67-3.37,15.23-5.1,23,4.89,0,9.65,0,14.63,0C798.91,683.66,798.7,684.66,798.48,685.68Z" transform="translate(-164.77 -393.46)"/><path class="cls-1" d="M873.28,685.69H869c2-8.78,3.87-17.45,5.81-26.19h4.24C877.14,668.27,875.22,677,873.28,685.69Z" transform="translate(-164.77 -393.46)"/></svg>